<?xml version="1.0" encoding="utf-8"?>
<!-- Generator: Adobe Illustrator 23.1.0, SVG Export Plug-In . SVG Version: 6.00 Build 0)  -->
<svg version="1.1" id="Layer_1" xmlns="http://www.w3.org/2000/svg" xmlns:xlink="http://www.w3.org/1999/xlink" x="0px" y="0px"
	 viewBox="0 0 90 80" style="enable-background:new 0 0 90 80;" xml:space="preserve">
<style type="text/css">
	.st0{fill:#707070;}
	.st1{fill:#8CA2F7;}
	.st2{fill:#8098F5;}
	.st3{fill:#F0F2FA;}
	.st4{fill:#F2F5FD;}
	.st5{fill:#C6CFF8;}
</style>
<g>
	<path class="st0" d="M46,78.85c-0.95,0-1.89,0-2.84,0c-0.1-0.27-0.37-0.3-0.58-0.34c-1.96-0.43-3.48-1.58-4.85-2.97
		C27.87,65.49,18.01,55.43,8.16,45.37c-3.4-3.48-5.67-7.59-6.89-12.3C0.93,31.78,1,30.4,0.38,29.18c0-0.61,0-1.22,0-1.82
		c0.29-0.54,0.27-1.08,0-1.62c0-0.68,0-1.35,0-2.03c0.35-0.29,0.32-0.71,0.38-1.1C1.9,15.09,5.84,9.36,12.03,5.12
		c3.74-2.57,7.99-3.68,12.48-3.95c0.41,0,0.82,0,1.22,0c1.24,0.11,2.5,0.15,3.73,0.34c5.59,0.89,10.44,3.32,14.56,7.2
		c0.51,0.48,0.84,0.66,1.46,0.07c5.14-4.89,11.3-7.35,18.36-7.62c0.41,0,0.81,0,1.22,0c1.98,0.19,3.95,0.4,5.87,0.99
		c8.92,2.71,14.49,8.71,17.28,17.48c0.45,1.4,0.38,2.91,0.98,4.27c0,0.27,0,0.54,0,0.81c-0.24,0.14-0.23,0.27,0,0.41
		c0,0.2,0,0.41,0,0.61c-0.28,0.54-0.31,1.08,0,1.62c0,0.61,0,1.22,0,1.82c-0.33,0.3-0.32,0.72-0.37,1.1
		c-0.84,5.94-3.4,11.03-7.6,15.31c-8.54,8.7-17.06,17.42-25.59,26.13c-0.64,0.65-1.29,1.29-1.91,1.96
		C51.55,76.02,49.3,78.22,46,78.85z M8.71,26.54c-0.01,4.87,1.74,9.28,5.09,12.71c9.95,10.16,19.9,20.31,29.86,30.47
		c1.11,1.13,1.13,1.13,2.22,0.02c10-10.2,20.01-20.4,30-30.61c5.44-5.57,6.53-14.67,2.55-21.36c-2.32-3.9-5.57-6.7-10.03-7.81
		c-6.85-1.7-12.71,0.27-17.68,5.14c-1.83,1.8-3.62,3.64-5.39,5.5c-0.44,0.46-0.69,0.44-1.11-0.01c-1.7-1.78-3.46-3.51-5.17-5.29
		c-3.94-4.09-8.75-6.24-14.42-5.9C15.56,9.94,8.72,17.43,8.71,26.54z"/>
	<path class="st1" d="M0.38,25.73c0.27,0.54,0.29,1.08,0,1.62C0.38,26.82,0.38,26.28,0.38,25.73z"/>
	<path class="st2" d="M89.18,27.36c-0.31-0.54-0.28-1.08,0-1.62C89.18,26.28,89.18,26.82,89.18,27.36z"/>
	<path class="st3" d="M25.72,1c0,0.06,0,0.11,0,0.17c-0.41,0-0.82,0-1.22,0c0-0.06,0-0.11,0-0.17C24.91,1,25.32,1,25.72,1z"/>
	<path class="st4" d="M63.84,1.17c0-0.06,0-0.11,0-0.17c0.41,0,0.81,0,1.22,0c0,0.06,0,0.11,0,0.17
		C64.65,1.17,64.24,1.17,63.84,1.17z"/>
	<path class="st5" d="M89.18,25.13c-0.23-0.14-0.24-0.27,0-0.41C89.18,24.86,89.18,24.99,89.18,25.13z"/>
</g>
</svg>
