<?xml version="1.0" encoding="utf-8"?>
<!-- Generator: Adobe Illustrator 23.1.0, SVG Export Plug-In . SVG Version: 6.00 Build 0)  -->
<svg version="1.1" id="Layer_1" xmlns="http://www.w3.org/2000/svg" xmlns:xlink="http://www.w3.org/1999/xlink" x="0px" y="0px"
	 viewBox="0 0 71 80" style="enable-background:new 0 0 71 80;" xml:space="preserve">
<style type="text/css">
	.st0{fill:#777777;}
</style>
<g>
	<path class="st0" d="M0.48,68.27l-0.08,0l-0.08-0.01c0-16.03,0-32.06,0-48.08c0.07,0.01,0.14,0.01,0.2,0.02
		c-0.01,0.24-0.02,0.48-0.02,0.72c0,15.36,0,30.72,0,46.09C0.5,67.42,0.49,67.85,0.48,68.27z"/>
	<path class="st0" d="M70,68.26c-0.05,0.01-0.1,0.01-0.15,0.01c-0.01-0.21-0.03-0.42-0.03-0.63c0-9.01,0.01-18.02,0-27.03
		c0-6.8-0.01-13.61-0.02-20.41c0.07-0.01,0.14-0.01,0.2-0.02C70,36.2,70,52.23,70,68.26z"/>
	<path class="st0" d="M57.66,79.72c-0.21-0.01-0.42-0.03-0.63-0.03c-14.58,0-29.16,0-43.74,0c-0.21,0-0.42,0.02-0.63,0.03
		c-6.05-0.4-10.33-3.82-11.87-9.5c-0.17-0.64-0.3-1.29-0.31-1.95C0.49,67.85,0.5,67.42,0.5,67c0-15.36,0-30.72,0-46.09
		c0-0.24,0.01-0.48,0.02-0.72c4.66-0.01,9.31-0.02,13.97,0c0.64,0,0.86-0.12,0.91-0.83c0.45-7.46,3.92-13.11,10.48-16.67
		c8.29-4.49,18.61-2.42,24.59,4.86c2.8,3.41,4.33,7.36,4.46,11.81c0.02,0.71,0.27,0.83,0.91,0.83c4.66-0.02,9.31,0,13.97,0
		c0.01,6.8,0.02,13.61,0.02,20.41c0,9.01,0,18.02,0,27.03c0,0.21,0.02,0.42,0.03,0.63c-0.32,5.67-4.97,10.59-10.66,11.26
		C58.68,79.59,58.17,79.65,57.66,79.72z M35.13,72.29c7.23,0,14.45,0,21.68,0c0.66,0,1.33,0.05,1.98-0.15
		c2.37-0.73,3.73-2.62,3.74-5.27c0.01-4.02,0.01-8.04,0.01-12.06c0-8.74-0.01-17.48,0.01-26.21c0-0.71-0.11-1.01-0.92-0.99
		c-1.93,0.06-3.87,0.05-5.8,0c-0.67-0.02-0.88,0.17-0.87,0.86c0.04,1.84,0.05,3.69,0,5.53c-0.06,2-1.68,3.53-3.64,3.53
		c-1.99,0-3.62-1.6-3.65-3.62c-0.02-1.81-0.04-3.63,0.01-5.44c0.02-0.69-0.2-0.86-0.87-0.85c-7.74,0.02-15.48,0.02-23.22,0
		c-0.69,0-0.95,0.14-0.93,0.89c0.05,1.81,0.01,3.63,0.01,5.44c0,0.56-0.1,1.08-0.37,1.56c-0.88,1.57-2.53,2.31-4.21,1.89
		c-1.63-0.41-2.7-1.8-2.73-3.61c-0.02-1.81-0.03-3.63,0-5.44c0.01-0.55-0.16-0.73-0.72-0.72c-1.96,0.03-3.93,0.06-5.9-0.01
		c-0.85-0.03-0.98,0.27-0.98,1.03c0.02,12.67,0.04,25.34,0,38.01c-0.01,3.13,2.01,5.76,5.68,5.7
		C20.68,72.21,27.91,72.29,35.13,72.29z M35.15,20.17c3.78,0,7.55-0.02,11.33,0.01c0.82,0.01,1.15-0.03,1.07-1.07
		c-0.49-6.49-6.21-11.65-12.82-11.39c-6.49,0.25-11.63,5.39-11.96,11.63c-0.04,0.71,0.1,0.84,0.77,0.84
		C27.41,20.16,31.28,20.17,35.15,20.17z"/>
</g>
</svg>
