<?xml version="1.0" encoding="utf-8"?>
<!-- Generator: Adobe Illustrator 23.1.0, SVG Export Plug-In . SVG Version: 6.00 Build 0)  -->
<svg version="1.1" id="Layer_1" xmlns="http://www.w3.org/2000/svg" xmlns:xlink="http://www.w3.org/1999/xlink" x="0px" y="0px"
	 viewBox="0 0 79 80" style="enable-background:new 0 0 79 80;" xml:space="preserve">
<style type="text/css">
	.st0{fill:#8CA2F7;}
	.st1{fill:#8098F5;}
	.st2{fill:#F0F2FA;}
	.st3{fill:#F2F5FD;}
	.st4{fill:#C6CFF8;}
	.st5{fill:#FDF6F1;}
	.st6{fill:#FBAE6E;}
</style>
<g>
	<path class="st0" d="M0.38,25.73c0.27,0.54,0.29,1.08,0,1.62C0.38,26.82,0.38,26.28,0.38,25.73z"/>
	<path class="st1" d="M89.18,27.36c-0.31-0.54-0.28-1.08,0-1.62C89.18,26.28,89.18,26.82,89.18,27.36z"/>
	<path class="st2" d="M25.72,1c0,0.06,0,0.11,0,0.17c-0.41,0-0.82,0-1.22,0c0-0.06,0-0.11,0-0.17C24.91,1,25.32,1,25.72,1z"/>
	<path class="st3" d="M63.84,1.17c0-0.06,0-0.11,0-0.17c0.41,0,0.81,0,1.22,0c0,0.06,0,0.11,0,0.17
		C64.65,1.17,64.24,1.17,63.84,1.17z"/>
	<path class="st4" d="M89.18,25.13c-0.23-0.14-0.24-0.27,0-0.41C89.18,24.86,89.18,24.99,89.18,25.13z"/>
</g>
<g>
	<path d="M78,73.35c0,0.24,0,0.47,0,0.71c-1.05,1.27-2.28,2.38-3.44,3.55c-1.44,1.44-2.22,1.44-3.65,0.01
		c-5.52-5.52-11.02-11.08-16.59-16.55c-1.24-1.22-2.11-2.43-1.84-4.23c0.01-0.07-0.06-0.14-0.12-0.28c-0.33,0.25-0.64,0.47-0.94,0.7
		c-7.61,5.85-16.16,7.99-25.59,6.26c-5.8-1.06-10.86-3.68-15.22-7.67c-5.11-4.68-8.36-10.39-9.73-17.18
		c-0.25-1.22-0.26-2.49-0.67-3.68c0-0.59,0-1.18,0-1.78c0.23-0.47,0.26-0.95,0-1.42c0-0.53,0-1.07,0-1.6
		c0.18-0.06,0.16-0.22,0.17-0.36c0.15-1.5,0.38-2.98,0.72-4.44C2.75,18.27,6.48,12.43,12.15,7.9c5.41-4.33,11.65-6.61,18.61-6.87
		c0.71,0,1.42,0,2.14,0c2.21,0.15,4.41,0.36,6.56,0.92c7.76,2.01,14,6.28,18.47,12.9c4.35,6.44,6.09,13.6,5.2,21.38
		c-0.59,5.09-2.33,9.73-5.17,13.97c-0.68,1.01-1.44,1.97-2.23,3.04c0.33,0,0.53,0.03,0.73,0c1.45-0.21,2.48,0.4,3.5,1.43
		c5.6,5.66,11.25,11.26,16.9,16.88C77.37,72.06,77.82,72.61,78,73.35z M31.82,56.83c13.02,0.11,24.33-10.47,24.29-24.3
		C56.07,18.94,45.43,8.24,31.81,8.25C17.82,8.26,7.52,19.48,7.5,32.55C7.47,45.94,18.53,56.95,31.82,56.83z"/>
	<path class="st5" d="M30.75,1.03c0-0.05,0-0.1,0-0.15c0.71,0,1.42,0,2.13,0c0,0.05,0,0.1,0,0.15C32.17,1.03,31.46,1.03,30.75,1.03z
		"/>
	<path class="st6" d="M0.2,31.78c0.26,0.47,0.23,0.95,0,1.42C0.2,32.73,0.2,32.26,0.2,31.78z"/>
</g>
</svg>
