<?xml version="1.0" encoding="utf-8"?>
<!-- Generator: Adobe Illustrator 23.1.0, SVG Export Plug-In . SVG Version: 6.00 Build 0)  -->
<svg version="1.1" id="Layer_1" xmlns="http://www.w3.org/2000/svg" xmlns:xlink="http://www.w3.org/1999/xlink" x="0px" y="0px"
	 viewBox="0 0 70 80" style="enable-background:new 0 0 70 80;" xml:space="preserve">
<style type="text/css">
	.st0{fill:#777777;}
</style>
<g>
	<path class="st0" d="M1.15,67.67l-0.07,0L1,67.66c0-15.64,0-31.28,0-46.93c0.07,0.01,0.13,0.01,0.2,0.02
		c-0.01,0.24-0.02,0.47-0.02,0.71c0,14.99,0,29.99,0,44.98C1.18,66.84,1.16,67.26,1.15,67.67z"/>
	<path class="st0" d="M69,67.66c-0.05,0.01-0.1,0.01-0.15,0.01c-0.01-0.21-0.03-0.41-0.03-0.62c0-8.79,0.01-17.59,0-26.38
		c0-6.64-0.01-13.28-0.02-19.92c0.07-0.01,0.13-0.01,0.2-0.02C69,36.37,69,52.02,69,67.66z"/>
	<path class="st0" d="M56.96,78.84c-0.21-0.01-0.41-0.03-0.62-0.03c-14.23,0-28.46,0-42.69,0c-0.21,0-0.41,0.02-0.62,0.03
		c-5.91-0.39-10.08-3.72-11.59-9.27c-0.17-0.62-0.29-1.26-0.3-1.91c0.01-0.41,0.03-0.82,0.03-1.24c0-14.99,0-29.99,0-44.98
		c0-0.24,0.01-0.47,0.02-0.71c4.54-0.01,9.09-0.02,13.63,0c0.62,0,0.84-0.12,0.88-0.81c0.44-7.28,3.82-12.79,10.23-16.26
		c8.09-4.38,18.16-2.36,24,4.74c2.73,3.32,4.23,7.19,4.35,11.52c0.02,0.7,0.26,0.81,0.88,0.81c4.54-0.02,9.09,0,13.63,0
		c0.01,6.64,0.02,13.28,0.02,19.92c0,8.79,0,17.59,0,26.38c0,0.21,0.02,0.41,0.03,0.62C68.54,73.2,64,78,58.45,78.66
		C57.95,78.72,57.46,78.78,56.96,78.84z M34.97,71.59c7.05,0,14.11,0,21.16,0c0.64,0,1.29,0.05,1.93-0.15
		c2.32-0.72,3.64-2.55,3.65-5.14c0.01-3.92,0.01-7.85,0.01-11.77c0-8.53-0.01-17.06,0.01-25.58c0-0.69-0.11-0.99-0.9-0.96
		c-1.89,0.06-3.78,0.05-5.66,0c-0.66-0.02-0.86,0.16-0.85,0.83c0.04,1.8,0.05,3.6,0,5.4c-0.06,1.95-1.64,3.45-3.56,3.44
		c-1.94,0-3.53-1.57-3.56-3.53c-0.02-1.77-0.04-3.54,0.01-5.31c0.02-0.67-0.19-0.83-0.85-0.83C38.81,28,31.25,28,23.7,27.98
		c-0.67,0-0.93,0.14-0.9,0.87c0.05,1.77,0.01,3.54,0.01,5.31c0,0.54-0.09,1.05-0.36,1.53c-0.86,1.53-2.47,2.26-4.11,1.84
		c-1.59-0.4-2.64-1.76-2.66-3.53c-0.02-1.77-0.03-3.54,0-5.31c0.01-0.54-0.16-0.71-0.7-0.7c-1.92,0.03-3.84,0.06-5.75-0.01
		c-0.83-0.03-0.95,0.26-0.95,1c0.02,12.36,0.04,24.73,0,37.09c-0.01,3.05,1.96,5.63,5.54,5.57C20.86,71.51,27.92,71.6,34.97,71.59z
		 M34.99,20.73c3.69,0,7.37-0.02,11.06,0.01c0.8,0.01,1.12-0.03,1.05-1.05c-0.48-6.34-6.06-11.37-12.51-11.12
		c-6.33,0.25-11.35,5.26-11.67,11.35c-0.04,0.69,0.1,0.82,0.75,0.82C27.44,20.72,31.21,20.73,34.99,20.73z"/>
</g>
</svg>
