<?xml version="1.0" encoding="utf-8"?>
<!-- Generator: Adobe Illustrator 23.1.0, SVG Export Plug-In . SVG Version: 6.00 Build 0)  -->
<svg version="1.1" id="Layer_1" xmlns="http://www.w3.org/2000/svg" xmlns:xlink="http://www.w3.org/1999/xlink" x="0px" y="0px"
	 viewBox="0 0 71 80" style="enable-background:new 0 0 71 80;" xml:space="preserve">
<style type="text/css">
	.st0{fill:#8CA2F7;}
	.st1{fill:#8098F5;}
	.st2{fill:#F0F2FA;}
	.st3{fill:#F2F5FD;}
	.st4{fill:#C6CFF8;}
	.st5{fill:#FBDDE7;}
	.st6{fill:#FBDCE7;}
	.st7{fill:#FCE6EE;}
	.st8{fill:#FFFFFF;}
</style>
<g>
	<path class="st0" d="M0.38,25.73c0.27,0.54,0.29,1.08,0,1.62C0.38,26.82,0.38,26.28,0.38,25.73z"/>
	<path class="st1" d="M89.18,27.36c-0.31-0.54-0.28-1.08,0-1.62C89.18,26.28,89.18,26.82,89.18,27.36z"/>
	<path class="st2" d="M25.72,1c0,0.06,0,0.11,0,0.17c-0.41,0-0.82,0-1.22,0c0-0.06,0-0.11,0-0.17C24.91,1,25.32,1,25.72,1z"/>
	<path class="st3" d="M63.84,1.17c0-0.06,0-0.11,0-0.17c0.41,0,0.81,0,1.22,0c0,0.06,0,0.11,0,0.17
		C64.65,1.17,64.24,1.17,63.84,1.17z"/>
	<path class="st4" d="M89.18,25.13c-0.23-0.14-0.24-0.27,0-0.41C89.18,24.86,89.18,24.99,89.18,25.13z"/>
</g>
<g>
	<path class="st5" d="M0.98,72.03c-0.05,0-0.1,0-0.15-0.01c0-1.74,0-3.48,0-5.22c0.05-0.01,0.1-0.01,0.16-0.01
		C0.98,68.54,0.98,70.28,0.98,72.03z"/>
	<path class="st6" d="M70,72.02c-0.05,0.01-0.1,0.01-0.15,0.01c0-1.69,0-3.38,0-5.06c0.05,0,0.1,0,0.15,0.01
		C70,68.66,70,70.34,70,72.02z"/>
	<path class="st7" d="M36.67,0.14c0,0.05,0,0.1,0.01,0.15c-0.78,0-1.57,0-2.35,0c0-0.05,0.01-0.1,0.01-0.15
		C35.11,0.14,35.89,0.14,36.67,0.14z"/>
	<path class="st8" d="M69.85,66.97c0,1.69,0,3.38,0,5.06c-0.18,3.83-3.03,6.67-7.05,7.04c-0.96-0.01-1.92-0.03-2.88-0.03
		c-16.94,0-33.88,0-50.82,0c-0.3,0-0.6,0.02-0.9,0.03c-3.55-0.24-5.96-2.15-7.03-5.54c-0.16-0.5-0.16-1-0.2-1.5
		c0-1.75,0-3.49,0-5.24c0.41-8.4,5.66-15.42,13.3-18.33c4.19-1.6,8.42-1.85,12.71-0.29c3.43,1.25,7.01,1.52,10.62,1.3
		c2.55-0.15,4.99-0.9,7.42-1.65c4.28-1.34,8.42-0.72,12.42,1.02c4.87,2.12,8.44,5.63,10.61,10.49
		C69.15,61.75,69.82,64.29,69.85,66.97z M35.37,71.69c4.17,0,8.35,0,12.52,0c4.59,0,9.19-0.02,13.78,0.02
		c0.77,0.01,1-0.23,0.94-0.97c-0.06-0.78-0.01-1.56-0.02-2.34c-0.01-4.27-1.39-7.97-4.73-10.73c-3.31-2.74-7.04-4.07-11.34-2.65
		c-3.26,1.08-6.6,1.73-10.03,1.84c-3.74,0.12-7.4-0.38-10.98-1.48c-1.73-0.53-3.44-1.14-5.35-0.87c-5.44,0.77-9.1,3.75-11.1,8.79
		c-0.94,2.36-0.82,4.88-0.85,7.36c-0.01,0.82,0.2,1.06,1.04,1.06C17.96,71.68,26.67,71.69,35.37,71.69z"/>
	<path class="st8" d="M34.32,0.3c0.78,0,1.57,0,2.35,0c5.99,0.48,11.08,2.79,15.14,7.29c3.98,4.42,5.88,9.64,5.71,15.54
		c-0.16,5.57-2.18,10.5-6.06,14.51c-4.12,4.26-9.15,6.64-15.16,6.85c-5.94,0.2-11.12-1.62-15.56-5.56c-4.4-3.9-6.85-8.78-7.33-14.63
		c-0.53-6.4,1.38-11.98,5.67-16.76c3.59-4,8.08-6.27,13.38-7.05C33.08,0.38,33.7,0.33,34.32,0.3z M20.64,22.35
		c-0.2,7.83,6.39,14.89,14.83,14.88c8.23-0.02,14.73-6.96,14.75-14.72c0.02-7.87-6.25-14.94-14.82-14.91
		C26.64,7.64,20.54,14.75,20.64,22.35z"/>
</g>
</svg>
