<?xml version="1.0" encoding="utf-8"?>
<!-- Generator: Adobe Illustrator 23.1.0, SVG Export Plug-In . SVG Version: 6.00 Build 0)  -->
<svg version="1.1" id="Layer_1" xmlns="http://www.w3.org/2000/svg" xmlns:xlink="http://www.w3.org/1999/xlink" x="0px" y="0px"
	 viewBox="0 0 70 80" style="enable-background:new 0 0 70 80;" xml:space="preserve">
<style type="text/css">
	.st0{fill:#777777;}
</style>
<g>
	<path class="st0" d="M1.21,67.57l-0.08,0l-0.07-0.01c0-15.74,0-31.48,0-47.22c0.07,0.01,0.13,0.01,0.2,0.02
		c-0.01,0.24-0.02,0.47-0.02,0.71c0,15.09,0,30.17,0,45.26C1.24,66.74,1.22,67.16,1.21,67.57z"/>
	<path class="st0" d="M69.49,67.56c-0.05,0.01-0.1,0.01-0.15,0.01c-0.01-0.21-0.03-0.41-0.03-0.62c0-8.85,0.01-17.7,0-26.55
		c0-6.68-0.01-13.36-0.02-20.05c0.07-0.01,0.13-0.01,0.2-0.02C69.49,36.08,69.49,51.82,69.49,67.56z"/>
	<path d="M57.37,78.82c-0.21-0.01-0.41-0.03-0.62-0.03c-14.32,0-28.64,0-42.96,0c-0.21,0-0.41,0.02-0.62,0.03
		c-5.95-0.39-10.15-3.75-11.66-9.33c-0.17-0.63-0.29-1.27-0.3-1.92c0.01-0.41,0.03-0.83,0.03-1.24c0-15.09,0-30.17,0-45.26
		c0-0.24,0.01-0.47,0.02-0.71c4.57-0.01,9.14-0.02,13.72,0c0.63,0,0.85-0.12,0.89-0.81c0.44-7.33,3.84-12.88,10.3-16.37
		c8.14-4.41,18.28-2.37,24.15,4.77c2.75,3.34,4.25,7.23,4.38,11.59c0.02,0.7,0.26,0.82,0.89,0.81c4.57-0.02,9.14,0,13.72,0
		c0.01,6.68,0.02,13.36,0.02,20.05c0,8.85,0,17.7,0,26.55c0,0.21,0.02,0.41,0.03,0.62c-0.31,5.57-4.88,10.4-10.47,11.06
		C58.37,78.69,57.87,78.76,57.37,78.82z M35.25,71.52c7.1,0,14.19,0,21.29,0c0.65,0,1.3,0.05,1.94-0.15
		c2.33-0.72,3.66-2.57,3.67-5.18c0.01-3.95,0.01-7.9,0.01-11.85c0-8.58-0.01-17.16,0.01-25.74c0-0.7-0.11-1-0.9-0.97
		c-1.9,0.06-3.8,0.05-5.7,0c-0.66-0.02-0.87,0.16-0.85,0.84c0.04,1.81,0.05,3.62,0,5.43c-0.06,1.96-1.65,3.47-3.58,3.47
		c-1.95,0-3.56-1.58-3.58-3.56c-0.02-1.78-0.04-3.56,0.01-5.34c0.02-0.68-0.19-0.84-0.85-0.84c-7.6,0.02-15.2,0.02-22.8,0
		c-0.67,0-0.93,0.14-0.91,0.87c0.05,1.78,0.01,3.56,0.01,5.34c0,0.55-0.09,1.06-0.36,1.54c-0.86,1.54-2.48,2.27-4.13,1.85
		c-1.6-0.41-2.65-1.77-2.68-3.55c-0.02-1.78-0.03-3.56,0-5.34c0.01-0.54-0.16-0.72-0.71-0.71c-1.93,0.03-3.86,0.06-5.79-0.01
		c-0.84-0.03-0.96,0.26-0.96,1.01c0.02,12.44,0.04,24.88,0,37.32c-0.01,3.07,1.98,5.66,5.58,5.6
		C21.05,71.44,28.15,71.52,35.25,71.52z M35.26,20.34c3.71,0,7.42-0.02,11.13,0.01c0.8,0.01,1.13-0.03,1.05-1.06
		c-0.48-6.38-6.1-11.44-12.59-11.19c-6.37,0.25-11.42,5.29-11.74,11.42c-0.04,0.7,0.1,0.83,0.76,0.82
		C27.66,20.33,31.46,20.34,35.26,20.34z"/>
</g>
</svg>
