<?xml version="1.0" encoding="utf-8"?>
<!-- Generator: Adobe Illustrator 23.1.0, SVG Export Plug-In . SVG Version: 6.00 Build 0)  -->
<svg version="1.1" id="Layer_1" xmlns="http://www.w3.org/2000/svg" xmlns:xlink="http://www.w3.org/1999/xlink" x="0px" y="0px"
	 viewBox="0 0 361 98" style="enable-background:new 0 0 361 98;" xml:space="preserve">
<g>
	<path d="M358.37,94.79c-9.26,0-18.18,0-27.62,0c0-11.78,0-23.36,0-35.29c-8.91,0-17.29,0-26.23,0c0,11.68,0,23.27,0,35.21
		c-9.44,0-18.36,0-27.71,0c0-29.89,0-59.76,0-90.02c8.84,0,17.75,0,27.35,0c0,10.05,0,20.27,0,30.85c9.06,0,17.44,0,26.33,0
		c0-10.29,0-20.38,0-30.85c9.53,0,18.56,0,27.87,0C358.37,34.74,358.37,64.62,358.37,94.79z"/>
	<path d="M81.85,4.46c9.04,0,17.83,0,27.2,0c0.09,1.87,0.23,3.63,0.23,5.38c0.02,15.15-0.02,30.3,0.04,45.44
		c0.01,2.82,0.09,5.68,0.59,8.45c1.42,7.78,5.63,10.99,13.67,10.76c7.1-0.2,11.39-3.83,11.86-11.5c0.65-10.62,0.55-21.28,0.66-31.93
		c0.09-8.64,0.02-17.29,0.02-26.34c9.35,0,18.38,0,27.76,0c0.11,1.46,0.3,2.9,0.3,4.35c0.02,16.98,0.06,33.96-0.03,50.94
		c-0.02,3.31-0.31,6.66-0.88,9.93c-2.29,13.08-9.86,21.59-22.7,25.07c-11.13,3.02-22.41,3.04-33.63,0.54
		c-14.19-3.16-23.95-11.89-24.78-26.37C80.94,47.82,81.85,26.35,81.85,4.46z"/>
	<path d="M178.64,64.81c9.25,0,18.19,0,27.16,0c4.49,11.01,10.78,14.56,20.52,11.54c3.46-1.08,5.91-3.07,6.16-6.96
		c0.25-3.76-2.32-5.39-5.27-6.36c-6.96-2.28-13.99-4.34-20.97-6.52c-2.54-0.79-5.09-1.6-7.56-2.57
		c-8.74-3.43-15.43-8.76-16.33-18.89c-0.99-11.19,2.52-20.82,12.48-26.47c16.13-9.14,32.89-8.87,49.18-0.29
		c8.59,4.52,12.93,13.78,12.12,23.22c-8.23,0-16.5,0-24.79,0c-3.58-7.86-9.1-10.97-16.73-8.68c-2.2,0.66-5.15,2.88-5.43,4.74
		c-0.26,1.75,2.12,4.91,4.07,5.78c4.67,2.08,9.77,3.17,14.7,4.67c5.72,1.75,11.61,3.11,17.13,5.37
		c22.02,8.98,17.77,35.29,5.52,44.77c-15.19,11.74-45.73,12.16-60.83,0.38C182.17,82.6,178.75,74.69,178.64,64.81z"/>
	<path d="M70.01,71.81c0,8.08,0,15.32,0,22.91c-22.63,0-44.99,0-67.67,0c0-30.13,0-60,0-90.14c9.22,0,18.14,0,27.7,0
		c0,22.36,0,44.57,0,67.23C43.61,71.81,56.55,71.81,70.01,71.81z"/>
</g>
</svg>
