<?xml version="1.0" encoding="utf-8"?>
<!-- Generator: Adobe Illustrator 23.1.0, SVG Export Plug-In . SVG Version: 6.00 Build 0)  -->
<svg version="1.1" id="Layer_1" xmlns="http://www.w3.org/2000/svg" xmlns:xlink="http://www.w3.org/1999/xlink" x="0px" y="0px"
	 viewBox="0 0 587 41" style="enable-background:new 0 0 587 41;" xml:space="preserve">
<style type="text/css">
	.st0{fill:#707070;}
</style>
<g>
	<path class="st0" d="M578.58,4.21c-10.15-0.64-20.29-1.52-30.47-1.82c-10.61-0.32-21.27-0.2-31.9-0.04
		c-25.45,0.38-50.89,0.86-76.34,1.38c-21.24,0.43-42.48,0.98-63.71,1.49c-6.81,0.16-13.63,0.32-20.44,0.58
		c-14.8,0.58-29.58,1.25-44.37,1.84c-21.61,0.87-43.22,1.68-64.83,2.54c-17.61,0.7-35.23,1.29-52.8,2.21
		c-18.76,0.98-37.46,2.3-56.19,3.45c-3.59,0.22-7.2,0.29-10.79,0.5c-11.17,0.63-22.32,1.36-33.49,1.93
		c-11.78,0.6-23.59,1.06-35.38,1.57c-10.19,0.43-20.38,0.92-30.59,1.23c-6.8,0.2-13.64,0.01-20.43,0.24
		c-1.93,0.07-4.61,0.75-5.42,1.62c-0.8,0.86-0.03,2.39,0.71,3.48c1.33,1.97,4.5,2.03,7.63,1.95c11.42-0.3,22.84-0.51,34.25-0.9
		c13.4-0.46,26.78-1.07,40.17-1.65c4.6-0.2,9.18-0.49,13.77-0.74c-6.16,1.1-12.44,1.52-18.72,1.97c-13.5,0.95-27.01,1.86-40.5,2.89
		c-6.55,0.5-13.06,1.15-19.54,1.88c-2.32,0.26-4.59,0.85-6.7,1.5c-3.32,1.01-3.86,1.9-2.74,3.62c1.33,2.04,3.5,2.76,6.93,2.29
		c2.14-0.29,4.25-0.63,6.41-0.87c8.81-0.97,17.62-1.91,26.44-2.85c3.1-0.33,6.2-0.77,9.33-0.89c5.72-0.23,11.46-0.26,17.19-0.38
		c0.6-0.01,1.42,0.07,1.76-0.12c3.75-2.08,8.62-1.45,13.05-1.78c2.71-0.2,5.58,0.16,8.23-0.16c5.28-0.63,10.41-1.6,15.93-0.84
		c1.02,0.14,2.28-0.29,3.42-0.47c5.32-0.85,10.49-2.25,16.29-1.11c1.11,0.22,2.64-0.17,3.93-0.37c2.23-0.35,4.39-0.91,6.65-1.15
		c3.73-0.39,7.52-0.63,11.3-0.86c3.97-0.25,7.96-0.42,11.94-0.6c2.77-0.13,5.76,0.99,8.28-0.49c8.98,0.57,17.23-3.01,26.39-1.52
		c0.69,0.11,1.55-0.17,2.34-0.23c9.11-0.64,18.21-1.28,27.32-1.91c0.2-0.01,0.4,0.02,0.6,0.01c8.39-0.35,16.78-0.68,25.17-1.06
		c1.18-0.05,2.38-0.26,3.48-0.51c4.21-0.96,8.39-1.53,12.85-0.44c0.98,0.24,2.32,0.04,3.49-0.02c2.98-0.15,5.98-0.28,8.94-0.53
		c4.52-0.38,9-0.87,13.51-1.28c0.91-0.08,2.4-0.22,2.72,0.04c1.43,1.15,2.94,0.59,4.17,0.1c3.64-1.44,7.53-1.13,11.59-0.96
		c3.7,0.16,7.48-0.04,11.19-0.27c4.55-0.28,9.06-0.85,13.61-1.11c1.77-0.1,3.99,0.75,5.4,0.39c7.69-1.98,16.36,0.22,23.91-2.01
		c0.45-0.13,1.18,0.02,1.78,0.08c4.34,0.41,8.55,0.42,12.76-0.62c1.5-0.37,3.9-0.39,5.23,0.07c3.3,1.12,5.96,0.63,8.96-0.29
		c1.53-0.47,3.55-0.38,5.2-0.75c1.34-0.3,2.47-0.89,3.69-1.37c-2.73-0.21-5.49-0.65-8.19-0.56c-6.96,0.23-13.89,0.73-20.84,1.07
		c-1.38,0.07-2.8-0.08-4.2-0.1c-10.53-0.13-21.1-1.06-31.45,1.12c-2.58,0.54-5.75,1.19-8.61-0.17c-0.6-0.29-1.92-0.12-2.9-0.09
		c-16.2,0.47-32.42,0.82-48.61,1.46c-18.8,0.74-37.56,1.76-56.35,2.6c-2.92,0.13-5.88,0.02-8.82,0.02
		c14.47-1.09,28.97-1.8,43.49-2.43c12.58-0.54,25.17-0.98,37.76-1.49c10.98-0.44,21.95-0.92,32.93-1.38
		c7.79-0.32,15.58-0.67,23.37-0.95c10.39-0.37,20.79-0.71,31.19-1.02c6.54-0.19,13.1-0.22,19.64-0.43
		c10.17-0.32,20.34-0.74,30.51-1.08c8.34-0.28,16.69-0.45,25.01-0.8c4.78-0.2,9.5-0.8,14.32-0.01c1.47,0.24,3.25,0.15,4.77-0.08
		c6.27-0.92,12.48-1.42,18.76-0.02c0.7,0.15,1.99,0.24,2.31,0.02c3-2.09,6.58-1,10.2-1c2.92,0,6.28,0.71,9.22-0.61
		c0.83-0.37,2.83-0.17,4.07,0.1c3.79,0.82,7.42,0.59,11.18-0.07c1.69-0.29,3.56-0.31,5.35-0.31c11.19,0,22.39,0.09,33.58,0.05
		c2.42-0.01,4.84-0.42,7.26-0.64C583.55,4.57,581.07,4.37,578.58,4.21z M105.2,24.9c2.05-1.18,2.05-1.18,4.83,0
		C108.14,24.9,106.69,24.9,105.2,24.9z M114.21,24.28c-0.01-0.16-0.03-0.32-0.04-0.49c1.44,0,2.87,0,4.31,0
		c0.08,0.16,0.16,0.32,0.24,0.49C117.22,24.28,115.71,24.28,114.21,24.28z M133.2,22.83c-0.04-0.28-0.07-0.55-0.11-0.83
		c2.26-0.16,4.52-0.32,6.78-0.48c0.06,0.27,0.12,0.54,0.17,0.82C137.76,22.5,135.48,22.66,133.2,22.83z M155.44,21.5
		c-0.05-0.25-0.09-0.49-0.14-0.74c2.19-0.12,4.38-0.23,6.57-0.35c0.04,0.2,0.07,0.4,0.11,0.6C159.8,21.17,157.62,21.34,155.44,21.5z
		 M167.09,20.8c-0.05-0.19-0.1-0.38-0.14-0.58c1-0.08,1.99-0.15,2.99-0.23c0.05,0.18,0.1,0.37,0.15,0.55
		C169.08,20.63,168.09,20.71,167.09,20.8z M174.44,20.49c3.61-1.52,22.89-2.84,37.7-2.27C199.63,18.98,187.11,19.73,174.44,20.49z"
		/>
	<path class="st0" d="M411.2,12.04c-0.03,0.01-0.05,0.02-0.08,0.03c0.04,0,0.08,0.01,0.12,0.01L411.2,12.04z"/>
	<path class="st0" d="M411.2,12.05c0,0,0.04,0.04,0.04,0.04c0.02,0,0.04-0.01,0.06-0.01C411.27,12.07,411.23,12.06,411.2,12.05z"/>
	<path class="st0" d="M419.6,13.16c11.62-0.5,23.17-1.68,34.9-1.45c2.29,0.05,4.62-0.73,6.94-1.13c-0.09-0.25-0.18-0.49-0.27-0.74
		c-5.16,0.25-10.31,0.64-15.48,0.73c-6.79,0.13-13.6-0.16-20.37,0.08c-4.71,0.17-9.35,0.92-14.02,1.42
		C413.82,13.08,416.37,13.3,419.6,13.16z"/>
</g>
</svg>
